<?xml version="1.0" encoding="utf-8"?>
<!-- Generator: Adobe Illustrator 16.0.0, SVG Export Plug-In . SVG Version: 6.00 Build 0)  -->
<!DOCTYPE svg PUBLIC "-//W3C//DTD SVG 1.1//EN" "http://www.w3.org/Graphics/SVG/1.1/DTD/svg11.dtd">
<svg version="1.1" xmlns="http://www.w3.org/2000/svg" xmlns:xlink="http://www.w3.org/1999/xlink" x="0px" y="0px"
	 width="627.222px" height="313.955px" viewBox="0 0 627.222 313.955" enable-background="new 0 0 627.222 313.955"
	 xml:space="preserve">
<g id="Layer_2">
	<path fill="#135A70" d="M547.316,18.657L42.134,58.608h-0.002c-27.972,8.539-31.51,44.467-31.51,44.467v112.466
		c5.514,36.803,23.202,43.671,30.59,44.921l3.289,0.263c0.001,0,0.001,0,0.001,0l487.271,38.773c0,0,73.394,7.354,86.596-28.514
		V47.634C618.369,47.634,614.981,22.271,547.316,18.657z M477.387,275.206l-428.22-33.263c0,0-27.458,1.056-30.626-32.736V108.354
		c4.171-33.892,41.812-31.741,42.751-31.684c0.013,0.002,0.019,0.002,0.019,0.002l422.943-32.21
		c70.752,1.056,80.256,31.154,80.256,31.154l0.528,165.799C556.589,279.435,477.387,275.206,477.387,275.206z"/>
</g>
<g id="Layer_3">
	<polygon fill="#FFFFFF" points="496.719,317.529 497.943,317.515 496.923,317.978 	"/>
	<path fill="#FFFFFF" d="M565.039,241.417c-8.449,38.019-87.651,33.789-87.651,33.789l-428.22-33.263
		c0,0-27.458,1.056-30.626-32.736V108.354c4.171-33.892,41.812-31.741,42.751-31.684c0.013,0.002,0.019,0.002,0.019,0.002
		l422.943-32.21c70.752,1.056,80.256,31.154,80.256,31.154L565.039,241.417z"/>
</g>
<g id="Layer_4" display="none" opacity="0.5">
	<path display="inline" fill="#135A70" d="M64.952,65.642l-2.641,10.032c0,0-0.006,0-0.019-0.002l-46.446-6.333L-1.05,96.48
		l20.591,10.875c-4.223,34.322-35.904-39.073-35.904-39.073l27.458-31.681h43.824L64.952,65.642z"/>
	<path display="inline" fill="#135A70" d="M62.292,75.671c-0.939-0.058-38.58-2.208-42.751,31.684L-1.05,96.48l16.896-27.143
		L62.292,75.671z"/>
	<path display="inline" fill="#135A70" d="M59.67,282.655l-58.081-6.862l17.952-67.586c3.168,33.792,30.626,32.736,30.626,32.736
		L59.67,282.655z"/>
	<path display="inline" fill="#135A70" d="M74.983,281.599L57.03,300.08c0,0-56.498-5.279-65.474-6.337
		c-8.975-1.056-7.919-32.207-7.919-32.207l7.919-74.45c0,0,24.818-12.672,27.985,21.121L1.589,275.792l58.081,6.862l-9.502-41.712
		l12.125,11.617L74.983,281.599z"/>
	<path display="inline" fill="#135A70" d="M593.496,247.806l-15.313,32.738l-79.24,35.971l-1.224,0.014l-19.332-42.323
		c0,0,79.202,4.229,87.651-33.789L593.496,247.806z"/>
	<polygon display="inline" fill="#135A70" points="478.387,274.206 497.719,316.529 464.131,316.978 446.181,287.406 	"/>
	<path display="inline" fill="#135A70" d="M649.994,255.2l-26.928,59.665l-124.123,1.65l79.24-35.971l15.313-32.738l-27.457-7.39
		c8.448-38.02,45.409-29.571,45.409-29.571L649.994,255.2z"/>
	<path display="inline" fill="#135A70" d="M565.51,74.618c0,0-9.504-30.099-80.256-31.154l77.617-17.424L565.51,74.618z"/>
	<path display="inline" fill="#135A70" d="M639.432,45.313l-26.4,37.752l-47.521-8.448l-2.639-48.578l-77.617,17.424
		c-70.755-1.056-39.073-27.456-39.073-27.456l104.017-8.449l78.674,5.327L639.432,45.313z"/>
</g>
<g id="Layer_5" display="none">
	<path display="inline" fill="#135A70" d="M625.705,17.592l-6.336,29.042c0,0-3.388-25.362-71.053-28.977l0.825-0.065H625.705z"/>
	<path display="inline" fill="#135A70" d="M653.162,71.978L638.64,58.576l-19.271-11.942l6.336-29.042h-76.563l-0.825,0.065
		c-0.421-0.022-0.845-0.043-1.273-0.065C478.146,14.229,507.976-9,507.976-9l93.709,8.184l49.098,7.126l-3.432,25.178
		L653.162,71.978z"/>
	<path display="inline" fill="#135A70" d="M631.513,311.697L529.605,323.84l3.168-25.343c0,0,73.394,7.354,86.596-28.514
		L631.513,311.697z"/>
	<path display="inline" fill="#135A70" d="M658.437,250.481L642.6,313.833l-55.699,37.747l-69.158-9.236l-26.661-25.871
		l41.691-17.975l-3.168,25.343l101.908-12.144l-12.145-41.713C632.569,234.115,658.437,250.481,658.437,250.481z"/>
	<path display="inline" fill="#135A70" d="M42.212,259.461l-0.495-0.038l-45.936-1.582l-7.394-55.973l23.234,12.672
		C17.136,251.343,34.824,258.211,42.212,259.461z"/>
	<path display="inline" fill="#135A70" d="M45.502,259.724v18.474l-24.021,18.214l-61.769-10.033l-21.645-41.439l21.117-38.804
		c0,0,45.403-38.54,52.438,8.405l-23.234-12.672l7.394,55.973l45.936,1.582l0.495,0.038
		C44.205,259.799,45.447,259.729,45.502,259.724C45.502,259.724,45.502,259.724,45.502,259.724z"/>
	<path display="inline" fill="#135A70" d="M43.132,57.608c-27.972,8.539-31.51,44.467-31.51,44.467L-2.635,52.969l44.352,4.752
		L43.132,57.608z"/>
	<path display="inline" fill="#135A70" d="M43.134,57.608h-0.002l-1.415,0.113l-44.352-4.752l14.257,49.106l-41.614,33.844
		l-9.239-46.723l33.788-58.601l56.754,4.488C51.311,35.083,71.108,49.073,43.134,57.608z"/>
</g>
<g id="Layer_6">
	
		<text transform="matrix(1.0298 0 0 1 42.4341 219.3003)" fill="#606153" font-family="'Bauhaus93'" font-size="170.7179" letter-spacing="-10.682">GENESE</text>
</g>
<g id="Layer_6_copy" display="none">
</g>
<g id="Layer_8">
	<g>
		<defs>
			<path id="SVGID_1_" d="M513.711,149.22c0,0-450.479-13.38-509.734,47.787c-59.257,61.169,286.725,106.408,286.725,106.408
				l214.089-58.62l43.326-37.593L513.711,149.22z"/>
		</defs>
		<clipPath id="SVGID_2_">
			<use xlink:href="#SVGID_1_"  overflow="visible"/>
		</clipPath>
		<g clip-path="url(#SVGID_2_)">
			
				<text transform="matrix(1.0298 0 0 1 42.4341 219.3003)" fill="#46463A" font-family="'Bauhaus93'" font-size="170.7179" letter-spacing="-10.682">GENESE</text>
		</g>
	</g>
</g>
<g id="Layer_7">
	<polygon fill="#46463A" points="327.34,81.999 345.817,81.999 350.278,102.07 345.18,102.07 	"/>
</g>
</svg>
